<mxfile host="app.diagrams.net" modified="2024-02-08T14:50:40.236Z" agent="Mozilla/5.0 (Macintosh; Intel Mac OS X 10_15_7) AppleWebKit/537.36 (KHTML, like Gecko) Chrome/121.0.0.0 Safari/537.36 Edg/121.0.0.0" etag="cTVYkv3OHJTniKJnqGIo" version="23.1.2" type="google">
  <diagram name="Page-1" id="U9fMu_aHmv-L_AnVmO2O">
    <mxGraphModel grid="1" page="1" gridSize="10" guides="1" tooltips="1" connect="1" arrows="1" fold="1" pageScale="1" pageWidth="850" pageHeight="1100" math="0" shadow="0">
      <root>
        <mxCell id="0" />
        <mxCell id="1" parent="0" />
        <mxCell id="eCV3Y6ddWSIxzTB57dlV-1" value="i1" style="ellipse;whiteSpace=wrap;html=1;fillColor=#CCFFE6;" vertex="1" parent="1">
          <mxGeometry x="90" y="250" width="30" height="30" as="geometry" />
        </mxCell>
        <mxCell id="ajMRmaGB6ieaAldLffmI-1" value="" style="endArrow=classic;html=1;rounded=0;exitX=1;exitY=0.5;exitDx=0;exitDy=0;entryX=0;entryY=0.5;entryDx=0;entryDy=0;" edge="1" parent="1" source="eCV3Y6ddWSIxzTB57dlV-1" target="ajMRmaGB6ieaAldLffmI-2">
          <mxGeometry width="50" height="50" relative="1" as="geometry">
            <mxPoint x="120" y="174.76" as="sourcePoint" />
            <mxPoint x="200" y="175" as="targetPoint" />
            <Array as="points">
              <mxPoint x="160" y="175" />
            </Array>
          </mxGeometry>
        </mxCell>
        <mxCell id="ajMRmaGB6ieaAldLffmI-2" value="*" style="ellipse;whiteSpace=wrap;html=1;fillColor=#FFCCCC;" vertex="1" parent="1">
          <mxGeometry x="160" y="160" width="30" height="30" as="geometry" />
        </mxCell>
        <mxCell id="ajMRmaGB6ieaAldLffmI-3" value="w1" style="ellipse;whiteSpace=wrap;html=1;fillColor=#FFE6CC;" vertex="1" parent="1">
          <mxGeometry x="90" y="160" width="30" height="30" as="geometry" />
        </mxCell>
        <mxCell id="ajMRmaGB6ieaAldLffmI-29" value="" style="endArrow=classic;html=1;rounded=0;exitX=1;exitY=0.5;exitDx=0;exitDy=0;entryX=0;entryY=0.5;entryDx=0;entryDy=0;" edge="1" parent="1" source="ajMRmaGB6ieaAldLffmI-3" target="ajMRmaGB6ieaAldLffmI-2">
          <mxGeometry width="50" height="50" relative="1" as="geometry">
            <mxPoint x="174.78" y="140" as="sourcePoint" />
            <mxPoint x="174.78" y="160" as="targetPoint" />
            <Array as="points" />
          </mxGeometry>
        </mxCell>
        <mxCell id="ajMRmaGB6ieaAldLffmI-32" value="*" style="ellipse;whiteSpace=wrap;html=1;fillColor=#FFCCCC;" vertex="1" parent="1">
          <mxGeometry x="160" y="250" width="30" height="30" as="geometry" />
        </mxCell>
        <mxCell id="ajMRmaGB6ieaAldLffmI-33" value="w3" style="ellipse;whiteSpace=wrap;html=1;fillColor=#FFE6CC;" vertex="1" parent="1">
          <mxGeometry x="160" y="200" width="30" height="30" as="geometry" />
        </mxCell>
        <mxCell id="ajMRmaGB6ieaAldLffmI-34" value="" style="endArrow=classic;html=1;rounded=0;exitX=1;exitY=0.5;exitDx=0;exitDy=0;entryX=0;entryY=0.5;entryDx=0;entryDy=0;" edge="1" parent="1">
          <mxGeometry width="50" height="50" relative="1" as="geometry">
            <mxPoint x="190" y="264.78" as="sourcePoint" />
            <mxPoint x="230" y="264.78" as="targetPoint" />
            <Array as="points">
              <mxPoint x="230" y="264.78" />
            </Array>
          </mxGeometry>
        </mxCell>
        <mxCell id="ajMRmaGB6ieaAldLffmI-35" value="" style="endArrow=classic;html=1;rounded=0;exitX=0.5;exitY=1;exitDx=0;exitDy=0;entryX=0.5;entryY=0;entryDx=0;entryDy=0;" edge="1" parent="1">
          <mxGeometry width="50" height="50" relative="1" as="geometry">
            <mxPoint x="174.78" y="230" as="sourcePoint" />
            <mxPoint x="174.78" y="250" as="targetPoint" />
            <Array as="points" />
          </mxGeometry>
        </mxCell>
        <mxCell id="ajMRmaGB6ieaAldLffmI-36" value="*" style="ellipse;whiteSpace=wrap;html=1;fillColor=#FFCCCC;" vertex="1" parent="1">
          <mxGeometry x="160" y="310" width="30" height="30" as="geometry" />
        </mxCell>
        <mxCell id="ajMRmaGB6ieaAldLffmI-37" value="w5" style="ellipse;whiteSpace=wrap;html=1;fillColor=#FFE6CC;" vertex="1" parent="1">
          <mxGeometry x="90" y="310" width="30" height="30" as="geometry" />
        </mxCell>
        <mxCell id="ajMRmaGB6ieaAldLffmI-39" value="" style="endArrow=classic;html=1;rounded=0;exitX=1;exitY=0.5;exitDx=0;exitDy=0;" edge="1" parent="1" source="ajMRmaGB6ieaAldLffmI-37">
          <mxGeometry width="50" height="50" relative="1" as="geometry">
            <mxPoint x="174.78" y="330" as="sourcePoint" />
            <mxPoint x="160" y="325" as="targetPoint" />
            <Array as="points" />
          </mxGeometry>
        </mxCell>
        <mxCell id="ajMRmaGB6ieaAldLffmI-40" value="" style="endArrow=classic;html=1;rounded=0;exitX=1;exitY=0.5;exitDx=0;exitDy=0;entryX=0;entryY=0.5;entryDx=0;entryDy=0;" edge="1" parent="1">
          <mxGeometry width="50" height="50" relative="1" as="geometry">
            <mxPoint x="120" y="264.67999999999995" as="sourcePoint" />
            <mxPoint x="160" y="264.67999999999995" as="targetPoint" />
            <Array as="points">
              <mxPoint x="160" y="264.67999999999995" />
            </Array>
          </mxGeometry>
        </mxCell>
        <mxCell id="ajMRmaGB6ieaAldLffmI-42" value="+" style="ellipse;whiteSpace=wrap;html=1;fillColor=#FFCCCC;" vertex="1" parent="1">
          <mxGeometry x="230" y="250" width="30" height="30" as="geometry" />
        </mxCell>
        <mxCell id="ajMRmaGB6ieaAldLffmI-43" value="" style="endArrow=classic;html=1;rounded=0;exitX=1;exitY=0.5;exitDx=0;exitDy=0;entryX=0.5;entryY=0;entryDx=0;entryDy=0;" edge="1" parent="1" source="ajMRmaGB6ieaAldLffmI-2" target="ajMRmaGB6ieaAldLffmI-42">
          <mxGeometry width="50" height="50" relative="1" as="geometry">
            <mxPoint x="270" y="290" as="sourcePoint" />
            <mxPoint x="320" y="240" as="targetPoint" />
          </mxGeometry>
        </mxCell>
        <mxCell id="ajMRmaGB6ieaAldLffmI-44" value="" style="endArrow=classic;html=1;rounded=0;exitX=1;exitY=0.5;exitDx=0;exitDy=0;entryX=0.5;entryY=1;entryDx=0;entryDy=0;" edge="1" parent="1" source="ajMRmaGB6ieaAldLffmI-36" target="ajMRmaGB6ieaAldLffmI-42">
          <mxGeometry width="50" height="50" relative="1" as="geometry">
            <mxPoint x="190" y="360" as="sourcePoint" />
            <mxPoint x="245" y="435" as="targetPoint" />
          </mxGeometry>
        </mxCell>
        <mxCell id="ajMRmaGB6ieaAldLffmI-82" value="i2" style="ellipse;whiteSpace=wrap;html=1;fillColor=#CCFFE6;" vertex="1" parent="1">
          <mxGeometry x="90" y="450" width="30" height="30" as="geometry" />
        </mxCell>
        <mxCell id="ajMRmaGB6ieaAldLffmI-83" value="" style="endArrow=classic;html=1;rounded=0;exitX=1;exitY=0.5;exitDx=0;exitDy=0;entryX=0;entryY=0.5;entryDx=0;entryDy=0;" edge="1" parent="1" source="ajMRmaGB6ieaAldLffmI-82" target="ajMRmaGB6ieaAldLffmI-84">
          <mxGeometry width="50" height="50" relative="1" as="geometry">
            <mxPoint x="120" y="374.76" as="sourcePoint" />
            <mxPoint x="200" y="375" as="targetPoint" />
            <Array as="points">
              <mxPoint x="160" y="375" />
            </Array>
          </mxGeometry>
        </mxCell>
        <mxCell id="ajMRmaGB6ieaAldLffmI-84" value="*" style="ellipse;whiteSpace=wrap;html=1;fillColor=#FFCCCC;" vertex="1" parent="1">
          <mxGeometry x="160" y="360" width="30" height="30" as="geometry" />
        </mxCell>
        <mxCell id="ajMRmaGB6ieaAldLffmI-85" value="w2" style="ellipse;whiteSpace=wrap;html=1;fillColor=#FFE6CC;" vertex="1" parent="1">
          <mxGeometry x="90" y="360" width="30" height="30" as="geometry" />
        </mxCell>
        <mxCell id="ajMRmaGB6ieaAldLffmI-86" value="" style="endArrow=classic;html=1;rounded=0;exitX=1;exitY=0.5;exitDx=0;exitDy=0;entryX=0;entryY=0.5;entryDx=0;entryDy=0;" edge="1" parent="1" source="ajMRmaGB6ieaAldLffmI-85" target="ajMRmaGB6ieaAldLffmI-84">
          <mxGeometry width="50" height="50" relative="1" as="geometry">
            <mxPoint x="174.78" y="340" as="sourcePoint" />
            <mxPoint x="174.78" y="360" as="targetPoint" />
            <Array as="points" />
          </mxGeometry>
        </mxCell>
        <mxCell id="ajMRmaGB6ieaAldLffmI-87" value="*" style="ellipse;whiteSpace=wrap;html=1;fillColor=#FFCCCC;" vertex="1" parent="1">
          <mxGeometry x="160" y="450" width="30" height="30" as="geometry" />
        </mxCell>
        <mxCell id="ajMRmaGB6ieaAldLffmI-88" value="w4" style="ellipse;whiteSpace=wrap;html=1;fillColor=#FFE6CC;" vertex="1" parent="1">
          <mxGeometry x="160" y="400" width="30" height="30" as="geometry" />
        </mxCell>
        <mxCell id="ajMRmaGB6ieaAldLffmI-89" value="" style="endArrow=classic;html=1;rounded=0;exitX=1;exitY=0.5;exitDx=0;exitDy=0;entryX=0;entryY=0.5;entryDx=0;entryDy=0;" edge="1" parent="1">
          <mxGeometry width="50" height="50" relative="1" as="geometry">
            <mxPoint x="190" y="464.78" as="sourcePoint" />
            <mxPoint x="230" y="464.78" as="targetPoint" />
            <Array as="points">
              <mxPoint x="230" y="464.78" />
            </Array>
          </mxGeometry>
        </mxCell>
        <mxCell id="ajMRmaGB6ieaAldLffmI-90" value="" style="endArrow=classic;html=1;rounded=0;exitX=0.5;exitY=1;exitDx=0;exitDy=0;entryX=0.5;entryY=0;entryDx=0;entryDy=0;" edge="1" parent="1">
          <mxGeometry width="50" height="50" relative="1" as="geometry">
            <mxPoint x="174.78" y="430" as="sourcePoint" />
            <mxPoint x="174.78" y="450" as="targetPoint" />
            <Array as="points" />
          </mxGeometry>
        </mxCell>
        <mxCell id="ajMRmaGB6ieaAldLffmI-91" value="*" style="ellipse;whiteSpace=wrap;html=1;fillColor=#FFCCCC;" vertex="1" parent="1">
          <mxGeometry x="160" y="510" width="30" height="30" as="geometry" />
        </mxCell>
        <mxCell id="ajMRmaGB6ieaAldLffmI-92" value="w6" style="ellipse;whiteSpace=wrap;html=1;fillColor=#FFE6CC;" vertex="1" parent="1">
          <mxGeometry x="90" y="510" width="30" height="30" as="geometry" />
        </mxCell>
        <mxCell id="ajMRmaGB6ieaAldLffmI-93" value="" style="endArrow=classic;html=1;rounded=0;exitX=1;exitY=0.5;exitDx=0;exitDy=0;" edge="1" parent="1" source="ajMRmaGB6ieaAldLffmI-92">
          <mxGeometry width="50" height="50" relative="1" as="geometry">
            <mxPoint x="174.78" y="530" as="sourcePoint" />
            <mxPoint x="160" y="525" as="targetPoint" />
            <Array as="points" />
          </mxGeometry>
        </mxCell>
        <mxCell id="ajMRmaGB6ieaAldLffmI-94" value="" style="endArrow=classic;html=1;rounded=0;exitX=1;exitY=0.5;exitDx=0;exitDy=0;entryX=0;entryY=0.5;entryDx=0;entryDy=0;" edge="1" parent="1">
          <mxGeometry width="50" height="50" relative="1" as="geometry">
            <mxPoint x="120" y="464.67999999999995" as="sourcePoint" />
            <mxPoint x="160" y="464.67999999999995" as="targetPoint" />
            <Array as="points">
              <mxPoint x="160" y="464.67999999999995" />
            </Array>
          </mxGeometry>
        </mxCell>
        <mxCell id="ajMRmaGB6ieaAldLffmI-95" value="+" style="ellipse;whiteSpace=wrap;html=1;fillColor=#FFCCCC;" vertex="1" parent="1">
          <mxGeometry x="230" y="450" width="30" height="30" as="geometry" />
        </mxCell>
        <mxCell id="ajMRmaGB6ieaAldLffmI-96" value="" style="endArrow=classic;html=1;rounded=0;exitX=1;exitY=0.5;exitDx=0;exitDy=0;entryX=0.5;entryY=0;entryDx=0;entryDy=0;" edge="1" parent="1" source="ajMRmaGB6ieaAldLffmI-84" target="ajMRmaGB6ieaAldLffmI-95">
          <mxGeometry width="50" height="50" relative="1" as="geometry">
            <mxPoint x="270" y="490" as="sourcePoint" />
            <mxPoint x="320" y="440" as="targetPoint" />
          </mxGeometry>
        </mxCell>
        <mxCell id="ajMRmaGB6ieaAldLffmI-97" value="" style="endArrow=classic;html=1;rounded=0;exitX=1;exitY=0.5;exitDx=0;exitDy=0;entryX=0.5;entryY=1;entryDx=0;entryDy=0;" edge="1" parent="1" source="ajMRmaGB6ieaAldLffmI-91" target="ajMRmaGB6ieaAldLffmI-95">
          <mxGeometry width="50" height="50" relative="1" as="geometry">
            <mxPoint x="190" y="560" as="sourcePoint" />
            <mxPoint x="245" y="635" as="targetPoint" />
          </mxGeometry>
        </mxCell>
        <mxCell id="ajMRmaGB6ieaAldLffmI-100" value="" style="endArrow=classic;html=1;rounded=0;exitX=1;exitY=0.5;exitDx=0;exitDy=0;entryX=0.5;entryY=0;entryDx=0;entryDy=0;" edge="1" parent="1" source="ajMRmaGB6ieaAldLffmI-42" target="ajMRmaGB6ieaAldLffmI-102">
          <mxGeometry width="50" height="50" relative="1" as="geometry">
            <mxPoint x="260" y="270" as="sourcePoint" />
            <mxPoint x="330" y="265" as="targetPoint" />
          </mxGeometry>
        </mxCell>
        <mxCell id="ajMRmaGB6ieaAldLffmI-101" value="w7" style="ellipse;whiteSpace=wrap;html=1;fillColor=#FFE6CC;" vertex="1" parent="1">
          <mxGeometry x="240" y="320" width="30" height="30" as="geometry" />
        </mxCell>
        <mxCell id="ajMRmaGB6ieaAldLffmI-102" value="*" style="ellipse;whiteSpace=wrap;html=1;fillColor=#FFCCCC;" vertex="1" parent="1">
          <mxGeometry x="320" y="310" width="30" height="30" as="geometry" />
        </mxCell>
        <mxCell id="ajMRmaGB6ieaAldLffmI-103" value="" style="endArrow=classic;html=1;rounded=0;exitX=1;exitY=0.5;exitDx=0;exitDy=0;entryX=0.5;entryY=1;entryDx=0;entryDy=0;" edge="1" parent="1" source="ajMRmaGB6ieaAldLffmI-101" target="ajMRmaGB6ieaAldLffmI-102">
          <mxGeometry width="50" height="50" relative="1" as="geometry">
            <mxPoint x="260" y="325" as="sourcePoint" />
            <mxPoint x="345" y="340" as="targetPoint" />
            <Array as="points" />
          </mxGeometry>
        </mxCell>
        <mxCell id="ajMRmaGB6ieaAldLffmI-104" value="w8" style="ellipse;whiteSpace=wrap;html=1;fillColor=#FFE6CC;" vertex="1" parent="1">
          <mxGeometry x="240" y="370" width="30" height="30" as="geometry" />
        </mxCell>
        <mxCell id="ajMRmaGB6ieaAldLffmI-105" value="*" style="ellipse;whiteSpace=wrap;html=1;fillColor=#FFCCCC;" vertex="1" parent="1">
          <mxGeometry x="320" y="370" width="30" height="30" as="geometry" />
        </mxCell>
        <mxCell id="ajMRmaGB6ieaAldLffmI-106" value="" style="endArrow=classic;html=1;rounded=0;exitX=1;exitY=0.5;exitDx=0;exitDy=0;entryX=0.5;entryY=1;entryDx=0;entryDy=0;" edge="1" parent="1" source="ajMRmaGB6ieaAldLffmI-95" target="ajMRmaGB6ieaAldLffmI-105">
          <mxGeometry width="50" height="50" relative="1" as="geometry">
            <mxPoint x="280" y="450" as="sourcePoint" />
            <mxPoint x="330" y="400" as="targetPoint" />
            <Array as="points">
              <mxPoint x="290" y="440" />
            </Array>
          </mxGeometry>
        </mxCell>
        <mxCell id="ajMRmaGB6ieaAldLffmI-107" value="" style="endArrow=classic;html=1;rounded=0;exitX=1;exitY=0.5;exitDx=0;exitDy=0;entryX=0.5;entryY=0;entryDx=0;entryDy=0;" edge="1" parent="1" source="ajMRmaGB6ieaAldLffmI-104" target="ajMRmaGB6ieaAldLffmI-105">
          <mxGeometry width="50" height="50" relative="1" as="geometry">
            <mxPoint x="320" y="404.68" as="sourcePoint" />
            <mxPoint x="380" y="404.68" as="targetPoint" />
          </mxGeometry>
        </mxCell>
        <mxCell id="ajMRmaGB6ieaAldLffmI-108" value="w9" style="ellipse;whiteSpace=wrap;html=1;fillColor=#FFE6CC;" vertex="1" parent="1">
          <mxGeometry x="320" y="430" width="30" height="30" as="geometry" />
        </mxCell>
        <mxCell id="ajMRmaGB6ieaAldLffmI-109" value="+" style="ellipse;whiteSpace=wrap;html=1;fillColor=#FFCCCC;" vertex="1" parent="1">
          <mxGeometry x="380" y="370" width="30" height="30" as="geometry" />
        </mxCell>
        <mxCell id="ajMRmaGB6ieaAldLffmI-110" value="" style="endArrow=classic;html=1;rounded=0;exitX=1;exitY=0.5;exitDx=0;exitDy=0;entryX=0.5;entryY=1;entryDx=0;entryDy=0;" edge="1" parent="1" source="ajMRmaGB6ieaAldLffmI-108" target="ajMRmaGB6ieaAldLffmI-109">
          <mxGeometry width="50" height="50" relative="1" as="geometry">
            <mxPoint x="388" y="485" as="sourcePoint" />
            <mxPoint x="463" y="420" as="targetPoint" />
            <Array as="points">
              <mxPoint x="370" y="420" />
            </Array>
          </mxGeometry>
        </mxCell>
        <mxCell id="ajMRmaGB6ieaAldLffmI-112" value="" style="endArrow=classic;html=1;rounded=0;exitX=1;exitY=0.5;exitDx=0;exitDy=0;entryX=0.5;entryY=0;entryDx=0;entryDy=0;" edge="1" parent="1" source="ajMRmaGB6ieaAldLffmI-102" target="ajMRmaGB6ieaAldLffmI-109">
          <mxGeometry width="50" height="50" relative="1" as="geometry">
            <mxPoint x="370" y="320" as="sourcePoint" />
            <mxPoint x="420" y="270" as="targetPoint" />
          </mxGeometry>
        </mxCell>
        <mxCell id="ajMRmaGB6ieaAldLffmI-113" value="y_pred" style="ellipse;whiteSpace=wrap;html=1;" vertex="1" parent="1">
          <mxGeometry x="460" y="370" width="40" height="30" as="geometry" />
        </mxCell>
        <mxCell id="ajMRmaGB6ieaAldLffmI-114" value="" style="endArrow=classic;html=1;rounded=0;exitX=1;exitY=0.5;exitDx=0;exitDy=0;entryX=0;entryY=0.5;entryDx=0;entryDy=0;" edge="1" parent="1" source="ajMRmaGB6ieaAldLffmI-109" target="ajMRmaGB6ieaAldLffmI-113">
          <mxGeometry width="50" height="50" relative="1" as="geometry">
            <mxPoint x="400" y="420" as="sourcePoint" />
            <mxPoint x="450" y="370" as="targetPoint" />
          </mxGeometry>
        </mxCell>
        <mxCell id="ajMRmaGB6ieaAldLffmI-115" value="h2" style="text;html=1;strokeColor=none;fillColor=none;align=center;verticalAlign=middle;whiteSpace=wrap;rounded=0;" vertex="1" parent="1">
          <mxGeometry x="230" y="470" width="60" height="30" as="geometry" />
        </mxCell>
        <mxCell id="ajMRmaGB6ieaAldLffmI-116" value="h1" style="text;html=1;strokeColor=none;fillColor=none;align=center;verticalAlign=middle;whiteSpace=wrap;rounded=0;" vertex="1" parent="1">
          <mxGeometry x="240" y="230" width="60" height="30" as="geometry" />
        </mxCell>
        <mxCell id="8ILFAxNecN_cAYxEJd2g-1" value="&lt;pre&gt;-0.3&lt;/pre&gt;" style="text;html=1;strokeColor=none;fillColor=#FF9999;align=center;verticalAlign=middle;whiteSpace=wrap;rounded=0;" vertex="1" parent="1">
          <mxGeometry x="95" y="150" width="65" height="10" as="geometry" />
        </mxCell>
        <mxCell id="8ILFAxNecN_cAYxEJd2g-2" value="&lt;pre&gt;0.7996&lt;/pre&gt;" style="text;html=1;strokeColor=none;fillColor=#FF9999;align=center;verticalAlign=middle;whiteSpace=wrap;rounded=0;" vertex="1" parent="1">
          <mxGeometry x="105" y="350" width="65" height="10" as="geometry" />
        </mxCell>
        <mxCell id="8ILFAxNecN_cAYxEJd2g-3" value="&lt;pre&gt;0.1493&lt;/pre&gt;" style="text;html=1;strokeColor=none;fillColor=#FF9999;align=center;verticalAlign=middle;whiteSpace=wrap;rounded=0;" vertex="1" parent="1">
          <mxGeometry x="170" y="230" width="65" height="10" as="geometry" />
        </mxCell>
        <mxCell id="8ILFAxNecN_cAYxEJd2g-4" value="&lt;pre&gt;0.8986&lt;/pre&gt;" style="text;html=1;strokeColor=none;fillColor=#FF9999;align=center;verticalAlign=middle;whiteSpace=wrap;rounded=0;" vertex="1" parent="1">
          <mxGeometry x="105" y="300" width="65" height="10" as="geometry" />
        </mxCell>
        <mxCell id="8ILFAxNecN_cAYxEJd2g-5" value="&lt;pre&gt;0.1997&lt;/pre&gt;" style="text;html=1;strokeColor=none;fillColor=#FF9999;align=center;verticalAlign=middle;whiteSpace=wrap;rounded=0;" vertex="1" parent="1">
          <mxGeometry x="175" y="430" width="65" height="10" as="geometry" />
        </mxCell>
        <mxCell id="8ILFAxNecN_cAYxEJd2g-7" value="&lt;pre&gt;-0.1404&lt;/pre&gt;" style="text;html=1;strokeColor=none;fillColor=#FF9999;align=center;verticalAlign=middle;whiteSpace=wrap;rounded=0;" vertex="1" parent="1">
          <mxGeometry x="105" y="500" width="65" height="10" as="geometry" />
        </mxCell>
        <mxCell id="8ILFAxNecN_cAYxEJd2g-8" value="&lt;pre&gt;0.6984&lt;/pre&gt;" style="text;html=1;strokeColor=none;fillColor=#FF9999;align=center;verticalAlign=middle;whiteSpace=wrap;rounded=0;" vertex="1" parent="1">
          <mxGeometry x="255" y="310" width="65" height="10" as="geometry" />
        </mxCell>
        <mxCell id="8ILFAxNecN_cAYxEJd2g-9" value="&lt;pre&gt;0.2489&lt;/pre&gt;" style="text;html=1;strokeColor=none;fillColor=#FF9999;align=center;verticalAlign=middle;whiteSpace=wrap;rounded=0;" vertex="1" parent="1">
          <mxGeometry x="260" y="360" width="65" height="10" as="geometry" />
        </mxCell>
        <mxCell id="8ILFAxNecN_cAYxEJd2g-10" value="&lt;pre&gt;-0.1019&lt;/pre&gt;" style="text;html=1;strokeColor=none;fillColor=#FF9999;align=center;verticalAlign=middle;whiteSpace=wrap;rounded=0;" vertex="1" parent="1">
          <mxGeometry x="360" y="420" width="65" height="10" as="geometry" />
        </mxCell>
      </root>
    </mxGraphModel>
  </diagram>
</mxfile>
